<?xml version="1.0" standalone="no"?>
<!DOCTYPE svg PUBLIC "-//W3C//DTD SVG 20010904//EN"
 "http://www.w3.org/TR/2001/REC-SVG-20010904/DTD/svg10.dtd">
<svg version="1.0" xmlns="http://www.w3.org/2000/svg"
 width="920.000000pt" height="931.000000pt" viewBox="0 0 920.000000 931.000000"
 preserveAspectRatio="xMidYMid meet">

<g transform="translate(0.000000,931.000000) scale(0.100000,-0.100000)"
fill="#000000" stroke="none">
<path d="M3350 7962 c0 -17 1219 -2967 1227 -2969 4 -1 37 68 72 155 59 143
305 739 932 2250 126 304 229 556 229 561 0 5 -42 -2 -92 -14 -278 -70 -680
-143 -911 -165 -156 -16 -446 -8 -607 15 -271 38 -631 112 -832 171 -10 3 -18
1 -18 -4z"/>
<path d="M3085 7778 c-260 -430 -531 -786 -744 -975 -179 -160 -481 -375 -787
-561 -71 -43 -129 -84 -129 -91 0 -7 77 -44 170 -83 94 -38 206 -85 250 -103
44 -19 442 -183 885 -365 443 -183 996 -410 1228 -506 233 -97 427 -174 432
-172 4 2 -31 95 -78 208 -412 992 -842 2025 -980 2357 -92 222 -170 403 -173
403 -3 0 -36 -51 -74 -112z m106 5 c18 -43 53 -130 79 -193 26 -63 171 -412
323 -775 151 -363 345 -831 432 -1040 86 -209 181 -436 210 -505 29 -69 70
-165 90 -215 20 -49 39 -96 42 -103 3 -7 -30 3 -73 21 -44 19 -164 69 -269
112 -104 43 -230 94 -280 115 -90 38 -154 64 -595 245 -129 54 -557 230 -950
392 -393 162 -726 299 -739 304 -23 9 -17 15 85 75 418 250 786 531 984 752
148 165 424 552 576 810 27 45 50 82 50 82 1 0 17 -35 35 -77z"/>
<path d="M5903 7688 c-669 -1607 -1144 -2760 -1139 -2765 3 -3 346 137 763
311 417 173 1079 450 1472 614 393 164 716 302 717 307 2 6 -36 33 -83 60
-113 66 -384 244 -503 330 -321 234 -470 380 -703 690 -116 154 -350 498 -405
597 -15 26 -30 48 -33 48 -4 0 -42 -87 -86 -192z m194 -5 c352 -547 571 -805
898 -1058 121 -94 395 -281 578 -395 65 -40 116 -74 115 -75 -2 -2 -640 -269
-1418 -593 -778 -325 -1432 -598 -1452 -606 l-37 -16 43 103 c23 56 294 708
601 1450 308 741 562 1346 566 1345 4 -2 52 -72 106 -155z"/>
<path d="M1350 5954 c0 -9 9 -50 20 -92 75 -296 150 -702 171 -926 30 -326
-17 -726 -150 -1261 -22 -88 -38 -162 -35 -164 5 -6 -84 -42 1479 604 743 307
1378 569 1413 583 34 14 62 29 62 34 0 4 -17 15 -37 24 -61 25 -2876 1195
-2900 1205 -18 7 -23 5 -23 -7z"/>
<path d="M6312 5355 c-799 -331 -1456 -605 -1459 -609 -4 -3 -2 -10 3 -15 5
-5 239 -105 519 -221 281 -117 937 -390 1459 -607 521 -216 950 -392 953 -389
2 2 -11 73 -31 158 -86 368 -138 679 -157 923 -21 291 27 670 151 1184 45 184
45 181 28 180 -7 -1 -667 -272 -1466 -604z"/>
<path d="M3225 4074 c-632 -261 -1294 -534 -1469 -607 -176 -73 -321 -137
-323 -143 -2 -6 8 -16 22 -22 51 -24 374 -227 515 -325 324 -224 517 -406 722
-678 114 -152 318 -455 414 -617 27 -45 51 -82 54 -82 3 0 39 80 80 178 40 97
316 759 612 1470 296 712 538 1296 538 1298 0 2 -3 4 -7 4 -5 0 -525 -214
-1158 -476z m1132 434 c-2 -7 -269 -647 -592 -1423 -323 -775 -591 -1421 -597
-1434 -8 -23 -12 -19 -59 60 -87 144 -311 479 -399 594 -188 248 -329 390
-562 566 -137 103 -380 265 -553 368 -66 40 -124 76 -128 80 -6 7 2861 1199
2887 1201 4 0 6 -6 3 -12z"/>
<path d="M4760 4545 c0 -5 318 -775 952 -2305 49 -118 128 -311 176 -427 48
-117 92 -213 97 -212 6 0 33 39 60 86 146 252 442 670 592 835 198 218 558
490 986 747 48 29 87 54 87 55 0 5 -72 35 -1025 431 -473 197 -1090 453 -1370
570 -535 222 -555 230 -555 220z m1587 -668 l1333 -554 -113 -68 c-271 -166
-563 -373 -753 -537 -218 -187 -462 -501 -754 -971 -49 -79 -76 -114 -81 -105
-4 7 -262 630 -574 1383 -312 754 -580 1400 -595 1437 l-28 66 116 -48 c65
-27 717 -298 1449 -603z"/>
<path d="M4261 3732 c-167 -405 -441 -1067 -608 -1471 -166 -404 -303 -737
-303 -740 0 -4 77 13 170 36 215 54 472 105 671 134 204 30 531 33 724 6 196
-28 478 -82 688 -133 104 -26 191 -44 193 -41 3 3 -74 196 -170 429 -97 232
-371 893 -610 1468 -238 574 -437 1045 -442 1047 -5 2 -146 -329 -313 -735z"/>
</g>
</svg>
